# xmcd CD database file
#
# Track frame offsets:
#	182
#	20822
#	53732
#	83687
#	108645
#	140345
#	171377
#	196317
#	234190
#	261862
#	287212
#	309892
#
# Disc length: 4478 seconds
#
# Revision: 0
# Processed by: cddbd v1.4PL0 Copyright (c) Steve Scherf et al.
# Submitted via: CDex 1.50
#
DISCID=a3117c0c
DTITLE=Joey Goldstein and Friends - A Strange Little Tune
DYEAR=1993
DGENRE=Jazz
TTITLE0=A Strange Little Tune
TTITLE1=Salman's Lament
TTITLE2=No Time to Wonder Why
TTITLE3=Swing Boog
TTITLE4=Sandy's Eyes
TTITLE5=The Wedding
TTITLE6=Spaz
TTITLE7=Reptillicus
TTITLE8=Joe's Blues
TTITLE9=Tilestones
TTITLE10=R.C.M.P.
TTITLE11=July '83
EXTD=YEAR: 1993
EXTT0=
EXTT1=
EXTT2=
EXTT3=
EXTT4=
EXTT5=
EXTT6=
EXTT7=
EXTT8=
EXTT9=
EXTT10=
EXTT11=
PLAYORDER=
